<svg id="graph" viewBox="-617,-396.5016025641026,1234,793.0032051282052"><g class="dashboard" transform="translate(0,0) scale(1)"><defs><marker id="arrowhead" class="marker arrowhead" viewBox="-0 -5 10 10" refX="10" refY="0" orient="auto" markerWidth="4" markerHeight="4" xoverflow="visible"><path stroke="context-stroke" fill="context-stroke" stroke-width="2" d="M 0,-5 L 10 ,0 L 0,5"></path></marker><marker id="arrow" class="marker arrow" viewBox="-0 -5 10 10" refX="10" refY="0" orient="auto-start-reverse" markerWidth="4" markerHeight="4" xoverflow="visible"><path stroke="context-stroke" fill="none" stroke-width="2" d="M 0,-5 L 10 ,0 L 0,5"></path></marker><marker id="mid-arrow" class="marker arrow" viewBox="0 -5 10 10" refX="5" refY="0" orient="auto" markerWidth="4" markerHeight="4" xoverflow="visible"><path stroke="context-stroke" fill="none" d="M 0,-5 L 10 ,0 L 0,5"></path></marker><marker id="debugcircle" class="marker circle" viewBox="-7 -7 14 14" refX="0" refY="0" orient="auto" markerWidth="4" markerHeight="4" xoverflow="visible"><circle stroke="context-stroke" stroke-width="2" fill="none" cx="0" cy="0" r="5"></circle></marker><marker id="circle" class="marker circle" viewBox="-5 -5 10 10" refX="0" refY="0" orient="auto" markerWidth="4" markerHeight="4" xoverflow="visible"><circle stroke="context-stroke" fill="context-stroke" cx="0" cy="0" r="5"></circle></marker><marker id="halfcircle" class="marker circle" viewBox="-0 -5 10 10" refX="0" refY="0" orient="auto" markerWidth="4" markerHeight="4" xoverflow="visible"><circle stroke="context-stroke" fill="context-stroke" cx="0" cy="0" r="5"></circle></marker><marker id="circlearrow" class="marker circlearrow" viewBox="0 -10 15 20" refX="0" refY="0" orient="auto" markerWidth="6" markerHeight="6" xoverflow="visible"><circle cx="0" cy="0" r="7" stroke="context-stroke" fill="context-stroke"></circle><path d="M 0,-5 L 20 ,0 L 0,5" stroke="context-stroke" fill="context-stroke"></path></marker></defs><g class="node expanded" id="pbdwh" status="Unknown" transform="translate(0, 0)"><rect class="node shape columns" width="1234" height="204" status="Unknown" x="-617" y="-102" rx="5" ry="5"></rect><text x="-613" y="-98" class="node label container columns">Main Data Warehouse</text><g class="node-container" transform="translate(-611, 9)"><g class="ghostlines"></g><g class="node expanded" id="sources" status="Unknown" transform="translate(230, 0)"><rect class="node shape columns" width="460" height="126" status="Unknown" x="-230" y="-63" rx="5" ry="5"></rect><text x="-226" y="-59" class="node label container columns">Sources</text><g class="node-container" transform="translate(-224, 9)"><g class="node expanded" id="lane1" status="Unknown" transform="translate(106, 0)"><rect class="node shape lane" width="212" height="100" status="Unknown" x="-106" y="-50" rx="5" ry="5"></rect><text x="-102" y="-46" class="node label container lane">Lane 1</text><g class="node-container" transform="translate(0, -32.5)"><g class="node expanded" id="exm_ren" status="Unknown" transform="translate(0, 37)"><rect class="node shape adapter" width="196" height="74" status="Unknown" x="-98" y="-37" rx="5" ry="5"></rect><text x="-94" y="-33" class="node label container adapter">Eximius</text><g class="zoom-button"><circle r="7" cx="89" cy="-28"></circle><rect class="icon minus" x="84" y="-29" width="10" height="2"></rect></g><g class="node-container"><g class="ghostlines"></g><g class="ghostlines"></g><g class="ghostlines"></g><g class="node expanded" id="archive_exm_ren" status="Unknown" transform="translate(50, -9)"><rect class="node shape" width="80" height="20" status="Unknown" x="-40" y="-10" rx="5" ry="5"></rect><text class="node label" x="0" y="0">archive</text></g><g class="node expanded" id="staging_exm_ren" status="Unknown" transform="translate(-50, -9)"><rect class="node shape" width="80" height="20" status="Unknown" x="-40" y="-10" rx="5" ry="5"></rect><text class="node label" x="0" y="0">staging</text></g><g class="node expanded" id="transform_exm_ren" status="Unknown" transform="translate(27.5, 21)"><rect class="node shape" width="125" height="20" status="Unknown" x="-62.5" y="-10" rx="5" ry="5"></rect><text class="node label" x="0" y="0">transform</text></g><g class="edges"><g class="edge SSIS" id="staging_exm_ren--SSIS--transform_exm_ren"><path class="path" d="M-50,1L-49.875,4.167C-49.75,7.333,-49.5,13.667,-47,17C-44.5,20.333,-39.75,20.667,-37.375,20.833L-35,21"></path></g><g class="edge SSIS" id="staging_exm_ren--SSIS--archive_exm_ren"><path class="path" d="M-10,-9L-8.5,-9C-7,-9,-4,-9,-2.167,-9C-0.333,-9,0.333,-9,2.167,-9C4,-9,7,-9,8.5,-9L10,-9"></path></g></g><g class="edges"><g class="edge SSIS" id="staging_exm_ren--SSIS--transform_exm_ren"><path class="path" d="M-50,1L-49.875,4.167C-49.75,7.333,-49.5,13.667,-47,17C-44.5,20.333,-39.75,20.667,-37.375,20.833L-35,21"></path></g><g class="edge SSIS" id="staging_exm_ren--SSIS--archive_exm_ren"><path class="path" d="M-10,-9L-8.5,-9C-7,-9,-4,-9,-2.167,-9C-0.333,-9,0.333,-9,2.167,-9C4,-9,7,-9,8.5,-9L10,-9"></path></g></g><g class="edges"><g class="edge SSIS" id="staging_exm_ren--SSIS--transform_exm_ren"><path class="path" d="M-50,1L-49.875,4.167C-49.75,7.333,-49.5,13.667,-47,17C-44.5,20.333,-39.75,20.667,-37.375,20.833L-35,21"></path></g><g class="edge SSIS" id="staging_exm_ren--SSIS--archive_exm_ren"><path class="path" d="M-10,-9L-8.5,-9C-7,-9,-4,-9,-2.167,-9C-0.333,-9,0.333,-9,2.167,-9C4,-9,7,-9,8.5,-9L10,-9"></path></g></g></g></g></g><g class="zoom-button"><circle r="7" cx="97" cy="-41"></circle><rect class="icon minus" x="92" y="-42" width="10" height="2"></rect></g></g><g class="node expanded" id="lane2" status="Unknown" transform="translate(338, 0)"><rect class="node shape lane" width="212" height="100" status="Unknown" x="-106" y="-50" rx="5" ry="5"></rect><text x="-102" y="-46" class="node label container lane">Lane</text><g class="node-container" transform="translate(0, -32.5)"><g class="node expanded" id="bankview" status="Unknown" transform="translate(0, 37)"><rect class="node shape adapter" width="196" height="74" status="Unknown" x="-98" y="-37" rx="5" ry="5"></rect><text x="-94" y="-33" class="node label container adapter">Bankview</text><g class="zoom-button"><circle r="7" cx="89" cy="-28"></circle><rect class="icon minus" x="84" y="-29" width="10" height="2"></rect></g><g class="node-container"><g class="ghostlines"></g><g class="ghostlines"></g><g class="ghostlines"></g><g class="node expanded" id="archive_bankview" status="Unknown" transform="translate(50, -9)"><rect class="node shape" width="80" height="20" status="Unknown" x="-40" y="-10" rx="5" ry="5"></rect><text class="node label" x="0" y="0">archive</text></g><g class="node expanded" id="staging_bankview" status="Unknown" transform="translate(-50, -9)"><rect class="node shape" width="80" height="20" status="Unknown" x="-40" y="-10" rx="5" ry="5"></rect><text class="node label" x="0" y="0">staging</text></g><g class="node expanded" id="transform_bankview" status="Unknown" transform="translate(27.5, 21)"><rect class="node shape" width="125" height="20" status="Unknown" x="-62.5" y="-10" rx="5" ry="5"></rect><text class="node label" x="0" y="0">transform</text></g><g class="edges"><g class="edge SSIS" id="staging_bankview--SSIS--transform_bankview"><path class="path" d="M-50,1L-49.875,4.167C-49.75,7.333,-49.5,13.667,-47,17C-44.5,20.333,-39.75,20.667,-37.375,20.833L-35,21"></path></g><g class="edge SSIS" id="staging_bankview--SSIS--archive_bankview"><path class="path" d="M-10,-9L-8.5,-9C-7,-9,-4,-9,-2.167,-9C-0.333,-9,0.333,-9,2.167,-9C4,-9,7,-9,8.5,-9L10,-9"></path></g></g><g class="edges"><g class="edge SSIS" id="staging_bankview--SSIS--transform_bankview"><path class="path" d="M-50,1L-49.875,4.167C-49.75,7.333,-49.5,13.667,-47,17C-44.5,20.333,-39.75,20.667,-37.375,20.833L-35,21"></path></g><g class="edge SSIS" id="staging_bankview--SSIS--archive_bankview"><path class="path" d="M-10,-9L-8.5,-9C-7,-9,-4,-9,-2.167,-9C-0.333,-9,0.333,-9,2.167,-9C4,-9,7,-9,8.5,-9L10,-9"></path></g></g><g class="edges"><g class="edge SSIS" id="staging_bankview--SSIS--transform_bankview"><path class="path" d="M-50,1L-49.875,4.167C-49.75,7.333,-49.5,13.667,-47,17C-44.5,20.333,-39.75,20.667,-37.375,20.833L-35,21"></path></g><g class="edge SSIS" id="staging_bankview--SSIS--archive_bankview"><path class="path" d="M-10,-9L-8.5,-9C-7,-9,-4,-9,-2.167,-9C-0.333,-9,0.333,-9,2.167,-9C4,-9,7,-9,8.5,-9L10,-9"></path></g></g></g></g></g><g class="zoom-button"><circle r="7" cx="97" cy="-41"></circle><rect class="icon minus" x="92" y="-42" width="10" height="2"></rect></g></g></g><g class="zoom-button"><circle r="7" cx="221" cy="-54"></circle><rect class="icon minus" x="216" y="-55" width="10" height="2"></rect></g></g><g class="node expanded" id="pbdwh_ods" status="Ready" transform="translate(555, 0)"><rect class="node shape" width="150" height="20" status="Ready" x="-75" y="-10" rx="5" ry="5"></rect><text class="node label" x="0" y="0">ODS</text></g><g class="node expanded" id="pbdwh_dwh" status="Ready" transform="translate(725, 0)"><rect class="node shape" width="150" height="20" status="Ready" x="-75" y="-10" rx="5" ry="5"></rect><text class="node label" x="0" y="0">DWH</text></g><g class="node expanded" id="dms" status="Unknown" transform="translate(903, 0)"><rect class="node shape lane" width="166" height="106" status="Unknown" x="-83" y="-53" rx="5" ry="5"></rect><text x="-79" y="-49" class="node label container lane">Data marts</text><g class="node-container" transform="translate(0, -35.5)"><g class="node expanded" id="em_payments" status="Unknown" transform="translate(0, 10)"><rect class="node shape" width="150" height="20" status="Unknown" x="-75" y="-10" rx="5" ry="5"></rect><text class="node label" x="0" y="0">Payments</text></g><g class="node expanded" id="dm_via" status="Unknown" transform="translate(0, 40)"><rect class="node shape" width="150" height="20" status="Unknown" x="-75" y="-10" rx="5" ry="5"></rect><text class="node label" x="0" y="0">VIA</text></g><g class="node expanded" id="em_dgs" status="Unknown" transform="translate(0, 70)"><rect class="node shape" width="150" height="20" status="Unknown" x="-75" y="-10" rx="5" ry="5"></rect><text class="node label" x="0" y="0">DGS</text></g></g><g class="zoom-button"><circle r="7" cx="74" cy="-44"></circle><rect class="icon minus" x="69" y="-45" width="10" height="2"></rect></g></g><g class="node expanded" id="foundation" status="Unknown" transform="translate(1112, 0)"><rect class="node shape lane" width="212" height="178" status="Unknown" x="-106" y="-89" rx="5" ry="5"></rect><text x="-102" y="-85" class="node label container lane">Cloud Data Foundation</text><g class="node-container" transform="translate(0, -71.5)"><g class="node expanded" id="foundation_em_payments" status="Unknown" transform="translate(0, 22)"><rect class="node shape foundation" width="196" height="44" status="Unknown" x="-98" y="-22" rx="5" ry="5"></rect><text x="-94" y="-18" class="node label container foundation">Payments</text><g class="zoom-button"><circle r="7" cx="89" cy="-13"></circle><rect class="icon minus" x="84" y="-14" width="10" height="2"></rect></g><g class="node-container"><g class="ghostlines"></g><g class="ghostlines"></g><g class="ghostlines"></g><g class="node expanded" id="raw_foundation_em_payments" status="Unknown" transform="translate(-50, 6)"><rect class="node shape" width="80" height="20" status="Unknown" x="-40" y="-10" rx="5" ry="5"></rect><text class="node label" x="0" y="0">raw</text></g><g class="node expanded" id="base_foundation_em_payments" status="Unknown" transform="translate(50, 6)"><rect class="node shape" width="80" height="20" status="Unknown" x="-40" y="-10" rx="5" ry="5"></rect><text class="node label" x="0" y="0">base</text></g><g class="edges"><g class="edge SSIS" id="raw_foundation_em_payments--SSIS--base_foundation_em_payments"><path class="path" d="M-10,6L-8.5,6C-7,6,-4,6,-2.167,6C-0.333,6,0.333,6,2.167,6C4,6,7,6,8.5,6L10,6"></path></g></g><g class="edges"><g class="edge SSIS" id="raw_foundation_em_payments--SSIS--base_foundation_em_payments"><path class="path" d="M-10,6L-8.5,6C-7,6,-4,6,-2.167,6C-0.333,6,0.333,6,2.167,6C4,6,7,6,8.5,6L10,6"></path></g></g><g class="edges"><g class="edge SSIS" id="raw_foundation_em_payments--SSIS--base_foundation_em_payments"><path class="path" d="M-10,6L-8.5,6C-7,6,-4,6,-2.167,6C-0.333,6,0.333,6,2.167,6C4,6,7,6,8.5,6L10,6"></path></g></g></g></g><g class="node expanded" id="foundation_dm_via" status="Unknown" transform="translate(0, 76)"><rect class="node shape foundation" width="196" height="44" status="Unknown" x="-98" y="-22" rx="5" ry="5"></rect><text x="-94" y="-18" class="node label container foundation">VIA</text><g class="zoom-button"><circle r="7" cx="89" cy="-13"></circle><rect class="icon minus" x="84" y="-14" width="10" height="2"></rect></g><g class="node-container"><g class="ghostlines"></g><g class="ghostlines"></g><g class="ghostlines"></g><g class="node expanded" id="raw_foundation_dm_via" status="Unknown" transform="translate(-50, 6)"><rect class="node shape" width="80" height="20" status="Unknown" x="-40" y="-10" rx="5" ry="5"></rect><text class="node label" x="0" y="0">raw</text></g><g class="node expanded" id="base_foundation_dm_via" status="Unknown" transform="translate(50, 6)"><rect class="node shape" width="80" height="20" status="Unknown" x="-40" y="-10" rx="5" ry="5"></rect><text class="node label" x="0" y="0">base</text></g><g class="edges"><g class="edge SSIS" id="raw_foundation_dm_via--SSIS--base_foundation_dm_via"><path class="path" d="M-10,6L-8.5,6C-7,6,-4,6,-2.167,6C-0.333,6,0.333,6,2.167,6C4,6,7,6,8.5,6L10,6"></path></g></g><g class="edges"><g class="edge SSIS" id="raw_foundation_dm_via--SSIS--base_foundation_dm_via"><path class="path" d="M-10,6L-8.5,6C-7,6,-4,6,-2.167,6C-0.333,6,0.333,6,2.167,6C4,6,7,6,8.5,6L10,6"></path></g></g><g class="edges"><g class="edge SSIS" id="raw_foundation_dm_via--SSIS--base_foundation_dm_via"><path class="path" d="M-10,6L-8.5,6C-7,6,-4,6,-2.167,6C-0.333,6,0.333,6,2.167,6C4,6,7,6,8.5,6L10,6"></path></g></g></g></g><g class="node expanded" id="foundation_em_dgs" status="Unknown" transform="translate(0, 130)"><rect class="node shape foundation" width="196" height="44" status="Unknown" x="-98" y="-22" rx="5" ry="5"></rect><text x="-94" y="-18" class="node label container foundation">DGS</text><g class="zoom-button"><circle r="7" cx="89" cy="-13"></circle><rect class="icon minus" x="84" y="-14" width="10" height="2"></rect></g><g class="node-container"><g class="ghostlines"></g><g class="ghostlines"></g><g class="ghostlines"></g><g class="node expanded" id="raw_foundation_em_dgs" status="Unknown" transform="translate(-50, 6)"><rect class="node shape" width="80" height="20" status="Unknown" x="-40" y="-10" rx="5" ry="5"></rect><text class="node label" x="0" y="0">raw</text></g><g class="node expanded" id="base_foundation_em_dgs" status="Unknown" transform="translate(50, 6)"><rect class="node shape" width="80" height="20" status="Unknown" x="-40" y="-10" rx="5" ry="5"></rect><text class="node label" x="0" y="0">base</text></g><g class="edges"><g class="edge SSIS" id="raw_foundation_em_dgs--SSIS--base_foundation_em_dgs"><path class="path" d="M-10,6L-8.5,6C-7,6,-4,6,-2.167,6C-0.333,6,0.333,6,2.167,6C4,6,7,6,8.5,6L10,6"></path></g></g><g class="edges"><g class="edge SSIS" id="raw_foundation_em_dgs--SSIS--base_foundation_em_dgs"><path class="path" d="M-10,6L-8.5,6C-7,6,-4,6,-2.167,6C-0.333,6,0.333,6,2.167,6C4,6,7,6,8.5,6L10,6"></path></g></g><g class="edges"><g class="edge SSIS" id="raw_foundation_em_dgs--SSIS--base_foundation_em_dgs"><path class="path" d="M-10,6L-8.5,6C-7,6,-4,6,-2.167,6C-0.333,6,0.333,6,2.167,6C4,6,7,6,8.5,6L10,6"></path></g></g></g></g></g><g class="zoom-button"><circle r="7" cx="97" cy="-80"></circle><rect class="icon minus" x="92" y="-81" width="10" height="2"></rect></g></g><g class="edges"><g class="edge SSIS" id="pbdwh_ods--SSIS--pbdwh_dwh"><path class="path" d="M630,0L631.5,0C633,0,636,0,637.833,0C639.667,0,640.333,0,642.167,0C644,0,647,0,648.5,0L650,0"></path></g><g class="edge SSIS" id="pbdwh_dwh--SSIS--em_payments"><path class="path" d="M800,0L802.1,-0.208C804.2,-0.417,808.4,-0.833,810.967,-4.792C813.533,-8.75,814.467,-16.25,817.033,-20.208C819.6,-24.167,823.8,-24.583,825.9,-24.792L828,-25"></path></g><g class="edge SSIS" id="pbdwh_dwh--SSIS--dm_via"><path class="path" d="M800,0L802.1,0.042C804.2,0.083,808.4,0.167,810.967,0.958C813.533,1.75,814.467,3.25,817.033,4.042C819.6,4.833,823.8,4.917,825.9,4.958L828,5"></path></g><g class="edge SSIS" id="pbdwh_dwh--SSIS--em_dgs"><path class="path" d="M800,0L802.1,0.292C804.2,0.583,808.4,1.167,810.967,6.708C813.533,12.25,814.467,22.75,817.033,28.292C819.6,33.833,823.8,34.417,825.9,34.708L828,35"></path></g><g class="edge SSIS" id="em_payments--SSIS--raw_foundation_em_payments"><path class="path" d="M978,-25L981.3,-25.15C984.6,-25.3,991.2,-25.6,995.233,-28.45C999.267,-31.3,1000.733,-36.7,1004.767,-39.55C1008.8,-42.4,1015.4,-42.7,1018.7,-42.85L1022,-43"></path></g><g class="edge SSIS" id="dm_via--SSIS--raw_foundation_dm_via"><path class="path" d="M978,5L981.3,5.05C984.6,5.1,991.2,5.2,995.233,6.15C999.267,7.1,1000.733,8.9,1004.767,9.85C1008.8,10.8,1015.4,10.9,1018.7,10.95L1022,11"></path></g><g class="edge SSIS" id="em_dgs--SSIS--raw_foundation_em_dgs"><path class="path" d="M978,35L981.3,35.25C984.6,35.5,991.2,36,995.233,40.75C999.267,45.5,1000.733,54.5,1004.767,59.25C1008.8,64,1015.4,64.5,1018.7,64.75L1022,65"></path></g></g></g><g class="zoom-button"><circle r="7" cx="608" cy="-93"></circle><rect class="icon minus" x="603" y="-94" width="10" height="2"></rect></g></g></g></svg>
